<mxfile host="app.diagrams.net" modified="2022-03-18T00:11:49.054Z" agent="5.0 (Windows NT 10.0; Win64; x64) AppleWebKit/537.36 (KHTML, like Gecko) Chrome/99.0.4844.51 Safari/537.36" etag="8wyJCXPqSbzVFGxdSQjg" version="17.1.3" type="github">
  <diagram id="udeeF-LAPLLDJDQuiQJ_" name="Page-1">
    <mxGraphModel dx="1422" dy="802" grid="1" gridSize="10" guides="1" tooltips="1" connect="1" arrows="1" fold="1" page="1" pageScale="1" pageWidth="850" pageHeight="1100" math="0" shadow="0">
      <root>
        <mxCell id="0" />
        <mxCell id="1" parent="0" />
        <mxCell id="TBpEsZQDBUSgC7shiPfD-8" value="" style="rounded=0;whiteSpace=wrap;html=1;" vertex="1" parent="1">
          <mxGeometry x="130" y="100" width="420" height="600" as="geometry" />
        </mxCell>
        <mxCell id="TBpEsZQDBUSgC7shiPfD-5" value="Header" style="rounded=0;whiteSpace=wrap;html=1;" vertex="1" parent="1">
          <mxGeometry x="130" y="100" width="420" height="40" as="geometry" />
        </mxCell>
        <mxCell id="TBpEsZQDBUSgC7shiPfD-7" value="Next Race" style="rounded=0;whiteSpace=wrap;html=1;" vertex="1" parent="1">
          <mxGeometry x="140" y="150" width="400" height="150" as="geometry" />
        </mxCell>
        <mxCell id="TBpEsZQDBUSgC7shiPfD-9" value="" style="rounded=0;whiteSpace=wrap;html=1;align=left;" vertex="1" parent="1">
          <mxGeometry x="140" y="320" width="400" height="110" as="geometry" />
        </mxCell>
        <mxCell id="TBpEsZQDBUSgC7shiPfD-10" value="" style="rounded=0;whiteSpace=wrap;html=1;" vertex="1" parent="1">
          <mxGeometry x="140" y="440" width="400" height="110" as="geometry" />
        </mxCell>
        <mxCell id="TBpEsZQDBUSgC7shiPfD-11" value="" style="rounded=0;whiteSpace=wrap;html=1;" vertex="1" parent="1">
          <mxGeometry x="140" y="560" width="400" height="110" as="geometry" />
        </mxCell>
        <mxCell id="TBpEsZQDBUSgC7shiPfD-12" value="" style="whiteSpace=wrap;html=1;aspect=fixed;" vertex="1" parent="1">
          <mxGeometry x="160" y="340" width="80" height="80" as="geometry" />
        </mxCell>
        <mxCell id="TBpEsZQDBUSgC7shiPfD-13" value="" style="whiteSpace=wrap;html=1;aspect=fixed;" vertex="1" parent="1">
          <mxGeometry x="300" y="340" width="80" height="80" as="geometry" />
        </mxCell>
        <mxCell id="TBpEsZQDBUSgC7shiPfD-14" value="" style="whiteSpace=wrap;html=1;aspect=fixed;" vertex="1" parent="1">
          <mxGeometry x="440" y="340" width="80" height="80" as="geometry" />
        </mxCell>
        <mxCell id="TBpEsZQDBUSgC7shiPfD-15" value="" style="whiteSpace=wrap;html=1;aspect=fixed;" vertex="1" parent="1">
          <mxGeometry x="160" y="460" width="80" height="80" as="geometry" />
        </mxCell>
        <mxCell id="TBpEsZQDBUSgC7shiPfD-16" value="" style="whiteSpace=wrap;html=1;aspect=fixed;" vertex="1" parent="1">
          <mxGeometry x="300" y="460" width="80" height="80" as="geometry" />
        </mxCell>
        <mxCell id="TBpEsZQDBUSgC7shiPfD-17" value="" style="whiteSpace=wrap;html=1;aspect=fixed;" vertex="1" parent="1">
          <mxGeometry x="440" y="460" width="80" height="80" as="geometry" />
        </mxCell>
        <mxCell id="TBpEsZQDBUSgC7shiPfD-18" value="" style="whiteSpace=wrap;html=1;aspect=fixed;" vertex="1" parent="1">
          <mxGeometry x="170" y="580" width="80" height="80" as="geometry" />
        </mxCell>
        <mxCell id="TBpEsZQDBUSgC7shiPfD-19" value="" style="whiteSpace=wrap;html=1;aspect=fixed;" vertex="1" parent="1">
          <mxGeometry x="300" y="580" width="80" height="80" as="geometry" />
        </mxCell>
        <mxCell id="TBpEsZQDBUSgC7shiPfD-20" value="" style="whiteSpace=wrap;html=1;aspect=fixed;" vertex="1" parent="1">
          <mxGeometry x="440" y="580" width="80" height="80" as="geometry" />
        </mxCell>
        <mxCell id="TBpEsZQDBUSgC7shiPfD-21" value="Header: News" style="rounded=0;whiteSpace=wrap;html=1;" vertex="1" parent="1">
          <mxGeometry x="140" y="560" width="120" height="20" as="geometry" />
        </mxCell>
        <mxCell id="TBpEsZQDBUSgC7shiPfD-23" value="Header: Upcoming" style="rounded=0;whiteSpace=wrap;html=1;" vertex="1" parent="1">
          <mxGeometry x="140" y="320" width="120" height="20" as="geometry" />
        </mxCell>
        <mxCell id="TBpEsZQDBUSgC7shiPfD-24" value="Header: Drivers Standings" style="rounded=0;whiteSpace=wrap;html=1;" vertex="1" parent="1">
          <mxGeometry x="140" y="440" width="150" height="20" as="geometry" />
        </mxCell>
        <mxCell id="TBpEsZQDBUSgC7shiPfD-26" value="" style="rounded=0;whiteSpace=wrap;html=1;" vertex="1" parent="1">
          <mxGeometry x="510" y="560" width="30" height="20" as="geometry" />
        </mxCell>
        <mxCell id="TBpEsZQDBUSgC7shiPfD-27" value="" style="rounded=0;whiteSpace=wrap;html=1;" vertex="1" parent="1">
          <mxGeometry x="510" y="320" width="30" height="20" as="geometry" />
        </mxCell>
        <mxCell id="TBpEsZQDBUSgC7shiPfD-28" value="" style="rounded=0;whiteSpace=wrap;html=1;" vertex="1" parent="1">
          <mxGeometry x="510" y="440" width="30" height="20" as="geometry" />
        </mxCell>
      </root>
    </mxGraphModel>
  </diagram>
</mxfile>
